<svg width="57" height="23" viewBox="0 0 57 23" fill="none" xmlns="http://www.w3.org/2000/svg">
<path d="M22.5099 1.63636H18.4631L13.4219 4.82812V8.64631L18.0852 5.72301H18.2045V22H22.5099V1.63636ZM36.2092 1.63636H32.1623L27.1211 4.82812V8.64631L31.7844 5.72301H31.9038V22H36.2092V1.63636ZM48.4865 22.2784C53.0206 22.2784 56.103 19.3253 56.093 15.2088C56.103 11.3111 53.3786 8.5071 49.7095 8.5071C47.9197 8.5071 46.3786 9.25284 45.6626 10.2571H45.5433L46.0703 5.15625H54.9695V1.63636H42.5206L41.5561 12.375L45.3842 13.0611C46.0107 12.2159 47.2237 11.6889 48.4268 11.6889C50.4751 11.6989 51.9467 13.1804 51.9467 15.3182C51.9467 17.4361 50.505 18.8977 48.4865 18.8977C46.7763 18.8977 45.3942 17.8239 45.2947 16.2429H41.1186C41.1982 19.7628 44.2706 22.2784 48.4865 22.2784Z" fill="#F5453D"/>
<path d="M4.02202 12.9395H5.19531L5.20526 11.791C7.35795 11.627 8.60582 10.4835 8.6108 8.75837C8.60582 7.06305 7.32812 6.1632 5.55824 5.76547L5.26491 5.69587L5.2848 3.21007C5.94602 3.36419 6.34872 3.78678 6.40838 4.4132H8.47159C8.44673 2.7676 7.21875 1.58933 5.30469 1.38053L5.31463 0.212202H4.14134L4.13139 1.37058C2.1875 1.5595 0.815341 2.7328 0.825284 4.42811C0.820312 5.92953 1.87926 6.78962 3.59943 7.20226L4.0767 7.32158L4.05185 9.95155C3.24148 9.79743 2.6946 9.30027 2.63991 8.47001H0.556818C0.606534 10.4785 1.92401 11.6021 4.03196 11.7861L4.02202 12.9395ZM5.22514 9.95155L5.24503 7.62982C6.01562 7.87342 6.43324 8.18663 6.43821 8.7534C6.43324 9.35496 5.97585 9.8024 5.22514 9.95155ZM4.09162 5.3926C3.47017 5.17882 3.02273 4.85567 3.03267 4.28394C3.03267 3.75197 3.41051 3.33933 4.11151 3.19516L4.09162 5.3926Z" fill="#F5453D"/>
</svg>
