<svg width="56" height="56" viewBox="0 0 56 56" fill="none" xmlns="http://www.w3.org/2000/svg">
<rect x="0.5" y="0.5" width="55" height="55" rx="7.5" stroke="url(#paint0_linear_0_1)"/>
<g clip-path="url(#clip0_0_1)">
<path d="M12.5166 32.3155C12.359 32.158 12.2616 31.9405 12.2618 31.7003L12.2618 27.7972C12.2618 27.3167 12.6513 26.9271 13.1318 26.9272C13.6123 26.9272 14.0018 27.3167 14.0018 27.7972L14.0018 31.7003C14.0018 32.1808 13.6123 32.5703 13.1318 32.5703C12.8914 32.5703 12.674 32.4729 12.5166 32.3155Z" fill="#3BA7F5"/>
<path d="M16.7592 32.3156C16.6018 32.1581 16.4976 31.9472 16.4844 31.7203L16.2675 28.0341C16.2408 27.5802 16.587 27.234 17.0408 27.2607C17.4946 27.2874 17.8842 27.6769 17.9109 28.1307L18.1277 31.817C18.1544 32.2708 17.8082 32.6171 17.3544 32.5904C17.1275 32.5772 16.9166 32.473 16.7592 32.3156Z" fill="#3BA7F5"/>
<path d="M18.226 27.7668C18.226 27.3022 17.8493 26.9256 17.3848 26.9257L13.1214 26.9256C12.8982 26.9256 12.6843 27.0142 12.5265 27.1719C12.3688 27.3297 12.28 27.5438 12.2802 27.7668L12.2801 30.6649L18.2262 30.6646L18.226 27.7668Z" fill="#259DF4"/>
<path d="M42.0736 28.7371C42.0674 27.9698 41.8885 27.2145 41.5531 26.5263C41.8769 25.8444 42.0431 25.0921 42.0365 24.3239C42.0132 21.5186 39.7115 19.2172 36.9067 19.1938C34.8226 19.1761 32.7246 20.2371 30.6708 22.3479C30.0244 23.0123 29.4893 23.674 29.1033 24.189L14.4414 24.0663C13.2109 24.056 12.2184 25.0485 12.2286 26.279L12.2404 27.6864C12.2422 27.9051 12.2473 28.5107 12.2473 28.5107L29.1372 28.6517C29.5337 29.176 30.0818 29.8492 30.7392 30.5243C32.8293 32.6668 34.9446 33.765 37.0286 33.7824C39.8339 33.8057 42.0972 31.5424 42.0736 28.7371ZM36.5501 26.4836C36.5551 27.153 36.8571 27.784 37.3776 28.2136C37.5244 28.3349 37.6095 28.5124 37.6112 28.6995C37.6139 29.0445 37.3359 29.3225 36.9912 29.3198C35.7921 29.3096 34.1971 27.8647 33.0398 26.4554C34.1733 25.0651 35.7437 23.6465 36.9441 23.6567C37.1103 23.6579 37.2675 23.7243 37.3868 23.8435C37.5062 23.9629 37.5725 24.1202 37.5738 24.2876C37.5756 24.4748 37.4939 24.6499 37.3493 24.7683C36.8359 25.1892 36.5447 25.8147 36.5501 26.4836Z" fill="#1B99F3"/>
<path d="M37.3566 28.337C37.5015 28.4565 37.585 28.6319 37.5859 28.8171C37.5874 29.1585 37.3107 29.4352 36.9696 29.4338C35.7821 29.4288 34.2089 28.0047 33.0688 26.6141L12.463 26.5283L12.4687 27.9195C12.4696 28.136 12.4721 28.7356 12.4721 28.7356L29.1955 28.805C29.5859 29.3225 30.1258 29.9868 30.7739 30.6525C32.8345 32.7653 34.9245 33.8439 36.988 33.8525C39.7658 33.864 42.0162 31.6136 42.0045 28.8359C42.0012 28.0763 41.8275 27.3291 41.4981 26.6489L36.5445 26.6283C36.5471 27.291 36.8434 27.9141 37.3566 28.337Z" fill="#3BA7F5"/>
</g>
<defs>
<linearGradient id="paint0_linear_0_1" x1="56" y1="56" x2="-11" y2="4.5" gradientUnits="userSpaceOnUse">
<stop stop-color="#3BA7F5"/>
<stop offset="1" stop-color="#2C2E59"/>
</linearGradient>
<clipPath id="clip0_0_1">
<rect width="32" height="32" fill="white" transform="translate(27.6274 5) rotate(45)"/>
</clipPath>
</defs>
</svg>
