<svg width="56" height="56" viewBox="0 0 56 56" fill="none" xmlns="http://www.w3.org/2000/svg">
<path d="M39.5632 36.25H16.437C16.0837 36.25 15.7536 36.0705 15.5547 35.7703C12.5034 31.1689 12.2694 22.3176 12.2517 21.0036C12.2506 20.9521 12.25 20.9001 12.25 20.8483C12.25 20.2425 12.727 19.7511 13.3161 19.75H13.3183C13.9062 19.75 14.3841 20.2391 14.3863 20.844C14.3863 20.8514 14.3865 20.9163 14.389 21.0312C14.4831 24.1562 16.9846 26.6683 20.0458 26.6683C23.1665 26.6683 25.7053 24.0575 25.7053 20.8483C25.7053 20.2417 26.1837 19.75 26.7733 19.75H29.2267C29.8166 19.75 30.2947 20.2417 30.2947 20.8483C30.2947 24.0575 32.8338 26.6683 35.9545 26.6683C39.0185 26.6683 41.5216 24.1516 41.6115 21.0227C41.6135 20.9129 41.614 20.8514 41.614 20.8443C41.6162 20.2391 42.0938 19.75 42.682 19.75H42.6839C43.273 19.7511 43.75 20.2425 43.75 20.8483C43.75 20.9003 43.7494 20.9521 43.7486 21.0039C43.7306 22.3176 43.4966 31.1692 40.4456 35.7706C40.2466 36.0705 39.9163 36.25 39.5632 36.25Z" fill="#F79C6E"/>
<path d="M42.6837 19.75C42.6831 19.75 42.6826 19.75 42.6817 19.75C42.0938 19.75 41.6159 20.2391 41.6137 20.844C41.6137 20.8514 41.6134 20.9129 41.6112 21.0227C41.5213 24.1514 39.0181 26.6684 35.9541 26.6684C32.8334 26.6684 30.2945 24.0575 30.2945 20.8483C30.2945 20.2417 29.8162 19.75 29.2265 19.75H28V36.25H39.5629C39.9163 36.25 40.2463 36.0705 40.4453 35.7706C43.4966 31.1691 43.7306 22.3173 43.7483 21.0036C43.7494 20.9521 43.75 20.9001 43.75 20.8483C43.7497 20.2425 43.2727 19.7511 42.6837 19.75Z" fill="#F6844B"/>
<path d="M28 16C25.9323 16 24.25 17.6823 24.25 19.7502C24.25 21.818 25.9323 23.5 28 23.5C30.0677 23.5 31.75 21.818 31.75 19.7502C31.75 17.6823 30.0677 16 28 16Z" fill="#F6844B"/>
<path d="M28 16V23.5C30.0679 23.4997 31.75 21.8177 31.75 19.75C31.75 17.6823 30.0676 16.0003 28 16Z" fill="#F47434"/>
<path d="M13.3751 18.25C11.5141 18.25 10 19.9323 10 22C10 24.0677 11.5141 25.75 13.3751 25.75C15.2362 25.75 16.75 24.0677 16.75 22C16.75 19.9323 15.2362 18.25 13.3751 18.25Z" fill="#F6844B"/>
<path d="M42.6249 18.25C40.7638 18.25 39.25 19.9323 39.25 22.0002C39.25 24.0677 40.7638 25.75 42.6249 25.75C44.4859 25.75 46 24.0677 46 22.0002C46 19.9323 44.4859 18.25 42.6249 18.25Z" fill="#F47434"/>
<path d="M39.672 40H16.328C15.7326 40 15.25 39.4941 15.25 38.87V35.5H40.75V38.87C40.75 39.4941 40.2674 40 39.672 40Z" fill="#F6844B"/>
<path d="M28 40H39.6719C40.2674 40 40.75 39.4941 40.75 38.87V35.5H28V40Z" fill="#F47434"/>
<rect x="0.5" y="0.5" width="55" height="55" rx="7.5" stroke="url(#paint0_linear_0_1)"/>
<defs>
<linearGradient id="paint0_linear_0_1" x1="56" y1="56" x2="-11" y2="4.5" gradientUnits="userSpaceOnUse">
<stop stop-color="#F6844B"/>
<stop offset="1" stop-color="#2C2E59"/>
</linearGradient>
</defs>
</svg>
