<svg width="46" height="23" viewBox="0 0 46 23" fill="none" xmlns="http://www.w3.org/2000/svg">
<path d="M14.456 22H18.9006L27.3523 5.20597V1.63636H13.0639V5.15625H22.8977V5.29545L14.456 22ZM37.467 22.2784C42.0011 22.2784 45.0835 19.3253 45.0735 15.2088C45.0835 11.3111 42.359 8.5071 38.69 8.5071C36.9002 8.5071 35.359 9.25284 34.6431 10.2571H34.5238L35.0508 5.15625H43.9499V1.63636H31.5011L30.5366 12.375L34.3647 13.0611C34.9911 12.2159 36.2042 11.6889 37.4073 11.6889C39.4556 11.6989 40.9272 13.1804 40.9272 15.3182C40.9272 17.4361 39.4854 18.8977 37.467 18.8977C35.7567 18.8977 34.3746 17.8239 34.2752 16.2429H30.0991C30.1786 19.7628 33.2511 22.2784 37.467 22.2784Z" fill="#F5453D"/>
<path d="M4.02202 12.9395H5.19531L5.20526 11.791C7.35795 11.627 8.60582 10.4835 8.6108 8.75837C8.60582 7.06305 7.32812 6.1632 5.55824 5.76547L5.26491 5.69587L5.2848 3.21007C5.94602 3.36419 6.34872 3.78678 6.40838 4.4132H8.47159C8.44673 2.7676 7.21875 1.58933 5.30469 1.38053L5.31463 0.212202H4.14134L4.13139 1.37058C2.1875 1.5595 0.815341 2.7328 0.825284 4.42811C0.820312 5.92953 1.87926 6.78962 3.59943 7.20226L4.0767 7.32158L4.05185 9.95155C3.24148 9.79743 2.6946 9.30027 2.63991 8.47001H0.556818C0.606534 10.4785 1.92401 11.6021 4.03196 11.7861L4.02202 12.9395ZM5.22514 9.95155L5.24503 7.62982C6.01562 7.87342 6.43324 8.18663 6.43821 8.7534C6.43324 9.35496 5.97585 9.8024 5.22514 9.95155ZM4.09162 5.3926C3.47017 5.17882 3.02273 4.85567 3.03267 4.28394C3.03267 3.75197 3.41051 3.33933 4.11151 3.19516L4.09162 5.3926Z" fill="#F5453D"/>
</svg>
