<svg width="30" height="23" viewBox="0 0 30 23" fill="none" xmlns="http://www.w3.org/2000/svg">
<path d="M21.6349 22.4474C26.7557 22.4474 29.848 18.5497 29.858 11.8381C29.8679 5.17614 26.7358 1.35795 21.6349 1.35795C16.5241 1.35795 13.4219 5.16619 13.4119 11.8381C13.392 18.5298 16.5043 22.4375 21.6349 22.4474ZM21.6349 18.8778C19.2983 18.8778 17.7869 16.5312 17.7969 11.8381C17.8068 7.21449 19.3082 4.88778 21.6349 4.88778C23.9517 4.88778 25.4631 7.21449 25.4631 11.8381C25.473 16.5312 23.9616 18.8778 21.6349 18.8778Z" fill="#F5453D"/>
<path d="M4.02202 12.9395H5.19531L5.20526 11.791C7.35795 11.627 8.60582 10.4835 8.6108 8.75837C8.60582 7.06305 7.32812 6.1632 5.55824 5.76547L5.26491 5.69587L5.2848 3.21007C5.94602 3.36419 6.34872 3.78678 6.40838 4.4132H8.47159C8.44673 2.7676 7.21875 1.58933 5.30469 1.38053L5.31463 0.212202H4.14134L4.13139 1.37058C2.1875 1.5595 0.815341 2.7328 0.825284 4.42811C0.820312 5.92953 1.87926 6.78962 3.59943 7.20226L4.0767 7.32158L4.05185 9.95155C3.24148 9.79743 2.6946 9.30027 2.63991 8.47001H0.556818C0.606534 10.4785 1.92401 11.6021 4.03196 11.7861L4.02202 12.9395ZM5.22514 9.95155L5.24503 7.62982C6.01562 7.87342 6.43324 8.18663 6.43821 8.7534C6.43324 9.35496 5.97585 9.8024 5.22514 9.95155ZM4.09162 5.3926C3.47017 5.17882 3.02273 4.85567 3.03267 4.28394C3.03267 3.75197 3.41051 3.33933 4.11151 3.19516L4.09162 5.3926Z" fill="#F5453D"/>
</svg>
