<svg width="49" height="49" viewBox="0 0 49 49" fill="none" xmlns="http://www.w3.org/2000/svg">
<circle cx="24.7081" cy="24.7081" r="23.5" transform="rotate(119.509 24.7081 24.7081)" stroke="url(#paint0_linear_0_1)"/>
<path d="M19.012 30H34V16C34 14.897 33.103 14 32 14H19C17.794 14 16 14.799 16 17V31C16 33.201 17.794 34 19 34H34V32H19.012C18.55 31.988 18 31.806 18 31C18 30.899 18.009 30.809 18.024 30.727C18.136 30.151 18.608 30.01 19.012 30ZM21.648 19.642C22.0642 19.2311 22.6256 19.0006 23.2105 19.0006C23.7954 19.0006 24.3568 19.2311 24.773 19.642L24.997 19.861L25.22 19.642C25.6364 19.231 26.1979 19.0006 26.783 19.0006C27.3681 19.0006 27.9296 19.231 28.346 19.642C28.5526 19.8406 28.7169 20.079 28.8291 20.3426C28.9414 20.6063 28.9992 20.8899 28.9992 21.1765C28.9992 21.4631 28.9414 21.7467 28.8291 22.0104C28.7169 22.274 28.5526 22.5124 28.346 22.711L24.998 26L21.649 22.711C21.4423 22.5125 21.2777 22.2743 21.1653 22.0106C21.0529 21.747 20.9949 21.4633 20.9948 21.1767C20.9948 20.8901 21.0526 20.6064 21.1648 20.3427C21.277 20.079 21.4414 19.8406 21.648 19.642Z" fill="url(#paint1_linear_0_1)"/>
<circle cx="5" cy="5" r="1" fill="#BBAC64"/>
<circle cx="40" cy="38" r="1" fill="#BBAC64"/>
<circle cx="9.5" cy="9.5" r="0.5" fill="#BBAC64"/>
<circle cx="1.5" cy="10.5" r="0.5" fill="#BBAC64"/>
<circle cx="4.5" cy="16.5" r="0.5" fill="#BBAC64"/>
<circle cx="35.5" cy="42.5" r="0.5" fill="#BBAC64"/>
<circle cx="42.5" cy="44.5" r="0.5" fill="#BBAC64"/>
<defs>
<linearGradient id="paint0_linear_0_1" x1="24.7081" y1="0.708113" x2="24.7081" y2="48.7081" gradientUnits="userSpaceOnUse">
<stop stop-color="#B8A74D"/>
<stop offset="1" stop-color="#2C2E59"/>
</linearGradient>
<linearGradient id="paint1_linear_0_1" x1="25" y1="14" x2="25" y2="34" gradientUnits="userSpaceOnUse">
<stop stop-color="#B0A04E"/>
<stop offset="1" stop-color="#CCC18A"/>
</linearGradient>
</defs>
</svg>
