<svg width="51" height="49" viewBox="0 0 51 49" fill="none" xmlns="http://www.w3.org/2000/svg">
<circle cx="26.7081" cy="24.7081" r="23.5" transform="rotate(119.509 26.7081 24.7081)" stroke="url(#paint0_linear_0_1)"/>
<path d="M29.1425 22.2427C29.2859 22.2427 29.4242 22.2657 29.5574 22.3041L32.0419 19.2587C32.2007 19.064 32.4953 19.0281 32.6874 19.1921C32.8744 19.3483 32.9 19.6275 32.7437 19.817L30.2874 22.8292C30.4539 23.0597 30.5538 23.3441 30.5538 23.6514C30.5538 24.2226 30.2105 24.717 29.7213 24.9372H39.3597C39.7132 24.9372 40.0001 24.6504 40.0001 24.2969V16.1901C40.0001 15.8367 39.7132 15.5498 39.3597 15.5498H27.1164C26.7629 15.5498 26.4761 15.8367 26.4761 16.1901V21.5127L27.0549 22.2452H29.1425V22.2427Z" fill="url(#paint1_linear_0_1)"/>
<path d="M21.156 18.7438C22.6046 18.7438 23.7788 17.5696 23.7788 16.121C23.7788 14.6725 22.6046 13.4982 21.156 13.4982C19.7075 13.4982 18.5332 14.6725 18.5332 16.121C18.5332 17.5696 19.7075 18.7438 21.156 18.7438Z" fill="url(#paint2_linear_0_1)"/>
<path d="M23.8455 35.8615C23.8455 36.215 23.5586 36.5018 23.2051 36.5018H22.1293C21.7759 36.5018 21.489 36.215 21.489 35.8615V30.4928C21.489 30.3033 21.3353 30.1496 21.1458 30.1496C20.9562 30.1496 20.8026 30.3033 20.8026 30.4928V35.8358C20.8026 36.2021 20.5029 36.5018 20.1366 36.5018H19.0839C18.7304 36.5018 18.4435 36.215 18.4435 35.8615L18.4384 22.901C18.4384 22.7268 18.2975 22.5834 18.1208 22.5834C17.9466 22.5834 17.8032 22.7242 17.8032 22.901V27.8854C17.8032 28.2388 17.5163 28.5257 17.1629 28.5257H16.6403C16.2869 28.5257 16 28.2388 16 27.8854V21.0516C16 20.2397 16.6583 19.584 17.4677 19.584H23.2999C23.9248 19.584 24.5165 19.8709 24.9059 20.3601L26.4734 22.3375L26.8038 22.755C26.8038 22.755 28.2894 22.755 29.1449 22.7575C29.4984 22.7575 29.7852 23.0444 29.7852 23.3979V23.9076C29.7852 24.261 29.4984 24.5479 29.1449 24.5479H26.3735C26.0995 24.5479 25.8408 24.4224 25.6717 24.2072L24.5037 22.7063C24.4448 22.6294 24.3501 22.5833 24.2527 22.5833H24.1733C23.9991 22.5833 23.8557 22.7242 23.8557 22.9009L23.8455 35.8615Z" fill="url(#paint3_linear_0_1)"/>
<circle cx="8" cy="31" r="1" fill="#6ABC9C"/>
<circle cx="43" cy="4" r="1" fill="#6ABC9C"/>
<circle cx="0.5" cy="32.5" r="0.5" fill="#6ABC9C"/>
<circle cx="5.5" cy="37.5" r="0.5" fill="#6ABC9C"/>
<circle cx="47.5" cy="8.5" r="0.5" fill="#6ABC9C"/>
<circle cx="44.5" cy="15.5" r="0.5" fill="#6ABC9C"/>
<defs>
<linearGradient id="paint0_linear_0_1" x1="26.7081" y1="0.708113" x2="26.7081" y2="48.7081" gradientUnits="userSpaceOnUse">
<stop stop-color="#4DB88D"/>
<stop offset="1" stop-color="#2C2E59"/>
</linearGradient>
<linearGradient id="paint1_linear_0_1" x1="33.2381" y1="15.5498" x2="33.2381" y2="24.9372" gradientUnits="userSpaceOnUse">
<stop stop-color="#4DB68D"/>
<stop offset="1" stop-color="#8CC3AE"/>
</linearGradient>
<linearGradient id="paint2_linear_0_1" x1="21.156" y1="13.4982" x2="21.156" y2="18.7438" gradientUnits="userSpaceOnUse">
<stop stop-color="#4DB68D"/>
<stop offset="1" stop-color="#8CC3AE"/>
</linearGradient>
<linearGradient id="paint3_linear_0_1" x1="22.8926" y1="19.584" x2="22.8926" y2="36.5018" gradientUnits="userSpaceOnUse">
<stop stop-color="#4DB68D"/>
<stop offset="1" stop-color="#8CC3AE"/>
</linearGradient>
</defs>
</svg>
