<svg width="51" height="51" viewBox="0 0 51 51" fill="none" xmlns="http://www.w3.org/2000/svg">
<circle cx="26.7081" cy="26.7081" r="23.5" transform="rotate(119.509 26.7081 26.7081)" stroke="url(#paint0_linear_0_1)"/>
<path d="M30.6 21.2C30.6 22.1548 30.2207 23.0704 29.5456 23.7456C28.8704 24.4207 27.9547 24.8 27 24.8C26.0452 24.8 25.1295 24.4207 24.4544 23.7456C23.7793 23.0704 23.4 22.1548 23.4 21.2C23.4 20.2452 23.7793 19.3295 24.4544 18.6544C25.1295 17.9793 26.0452 17.6 27 17.6C27.9547 17.6 28.8704 17.9793 29.5456 18.6544C30.2207 19.3295 30.6 20.2452 30.6 21.2V21.2Z" fill="url(#paint1_linear_0_1)"/>
<path d="M36.6001 23.6C36.6001 24.2365 36.3472 24.8469 35.8971 25.297C35.447 25.7471 34.8366 26 34.2001 26C33.5636 26 32.9531 25.7471 32.503 25.297C32.0529 24.8469 31.8001 24.2365 31.8001 23.6C31.8001 22.9634 32.0529 22.353 32.503 21.9029C32.9531 21.4528 33.5636 21.2 34.2001 21.2C34.8366 21.2 35.447 21.4528 35.8971 21.9029C36.3472 22.353 36.6001 22.9634 36.6001 23.6V23.6Z" fill="url(#paint2_linear_0_1)"/>
<path d="M31.8 31.9999C31.8 30.7269 31.2943 29.506 30.3941 28.6058C29.4939 27.7057 28.273 27.2 27 27.2C25.7269 27.2 24.506 27.7057 23.6059 28.6058C22.7057 29.506 22.2 30.7269 22.2 31.9999V35.5999H31.8V31.9999Z" fill="url(#paint3_linear_0_1)"/>
<path d="M22.2 23.6C22.2 24.2365 21.9471 24.8469 21.497 25.297C21.0469 25.7471 20.4365 26 19.8 26C19.1634 26 18.553 25.7471 18.1029 25.297C17.6528 24.8469 17.4 24.2365 17.4 23.6C17.4 22.9634 17.6528 22.353 18.1029 21.9029C18.553 21.4528 19.1634 21.2 19.8 21.2C20.4365 21.2 21.0469 21.4528 21.497 21.9029C21.9471 22.353 22.2 22.9634 22.2 23.6V23.6Z" fill="url(#paint4_linear_0_1)"/>
<path d="M34.2001 35.5999V31.9999C34.2018 30.7799 33.892 29.5796 33.3001 28.5127C33.8321 28.3766 34.3882 28.3637 34.9259 28.4752C35.4637 28.5866 35.9688 28.8194 36.4029 29.1558C36.837 29.4922 37.1885 29.9233 37.4306 30.4162C37.6728 30.9091 37.7991 31.4508 37.8001 31.9999V35.5999H34.2001Z" fill="url(#paint5_linear_0_1)"/>
<path d="M20.7 28.5128C20.1081 29.5796 19.7983 30.7799 19.8 32V35.6H16.2V32C16.1998 31.4504 16.3253 30.9081 16.5671 30.4146C16.8089 29.9211 17.1605 29.4895 17.5948 29.1529C18.0292 28.8162 18.5349 28.5835 19.0732 28.4726C19.6114 28.3616 20.1679 28.3754 20.7 28.5128V28.5128Z" fill="url(#paint6_linear_0_1)"/>
<circle cx="1" cy="36" r="1" fill="#F0868A"/>
<circle cx="14" cy="41" r="1" fill="#F0868A"/>
<circle cx="18" cy="1" r="1" fill="#F0868A"/>
<circle cx="10.5" cy="10.5" r="0.5" fill="#F0868A"/>
<circle cx="12.5" cy="4.5" r="0.5" fill="#F0868A"/>
<circle cx="6.5" cy="42.5" r="0.5" fill="#F0868A"/>
<defs>
<linearGradient id="paint0_linear_0_1" x1="26.7081" y1="2.70811" x2="26.7081" y2="50.7081" gradientUnits="userSpaceOnUse">
<stop stop-color="#FF7D7D"/>
<stop offset="1" stop-color="#2C2E59"/>
</linearGradient>
<linearGradient id="paint1_linear_0_1" x1="27" y1="17.6" x2="27" y2="24.8" gradientUnits="userSpaceOnUse">
<stop stop-color="#EF777B"/>
<stop offset="1" stop-color="#F08F92"/>
</linearGradient>
<linearGradient id="paint2_linear_0_1" x1="34.2001" y1="21.2" x2="34.2001" y2="26" gradientUnits="userSpaceOnUse">
<stop stop-color="#EF777B"/>
<stop offset="1" stop-color="#F08F92"/>
</linearGradient>
<linearGradient id="paint3_linear_0_1" x1="27" y1="27.2" x2="27" y2="35.5999" gradientUnits="userSpaceOnUse">
<stop stop-color="#EF777B"/>
<stop offset="1" stop-color="#F08F92"/>
</linearGradient>
<linearGradient id="paint4_linear_0_1" x1="19.8" y1="21.2" x2="19.8" y2="26" gradientUnits="userSpaceOnUse">
<stop stop-color="#EF777B"/>
<stop offset="1" stop-color="#F08F92"/>
</linearGradient>
<linearGradient id="paint5_linear_0_1" x1="35.5501" y1="28.4001" x2="35.5501" y2="35.5999" gradientUnits="userSpaceOnUse">
<stop stop-color="#EF777B"/>
<stop offset="1" stop-color="#F08F92"/>
</linearGradient>
<linearGradient id="paint6_linear_0_1" x1="18.45" y1="28.3984" x2="18.45" y2="35.6" gradientUnits="userSpaceOnUse">
<stop stop-color="#EF777B"/>
<stop offset="1" stop-color="#F08F92"/>
</linearGradient>
</defs>
</svg>
